<svg xmlns="http://www.w3.org/2000/svg" xmlns:xlink="http://www.w3.org/1999/xlink" viewBox="0,0,256,256" width="50px" height="50px"><g fill="#ffffff" fill-rule="nonzero" stroke="none" stroke-width="1" stroke-linecap="butt" stroke-linejoin="miter" stroke-miterlimit="10" stroke-dasharray="" stroke-dashoffset="0" font-family="none" font-weight="none" font-size="none" text-anchor="none" style="mix-blend-mode: normal"><g transform="scale(5.12,5.12)"><path d="M20,9v5h-10v5h-5v5h-3.875c-0.47656,0.00781 -0.87891,0.34766 -0.96875,0.8125c0,0 -0.15625,0.85547 -0.15625,1.9375c0,0.6875 0.07031,1.43359 0.1875,2.1875c-0.05859,0.01563 -0.13672,0.05078 -0.1875,0.0625h0.1875c0.28906,1.80859 0.95313,3.73438 2.0625,5.5625c0.00391,0.00781 -0.00391,0.02344 0,0.03125c0.00781,0.01953 0.01953,0.04297 0.03125,0.0625c0.05078,0.23828 0.18359,0.44922 0.375,0.59375c0.01953,0.01172 0.04297,0.02344 0.0625,0.03125c0.30859,0.44531 0.63281,0.89063 1,1.3125c2.67578,3.08594 7.01953,5.40625 13.28125,5.40625c10.22266,0 18.86719,-4.35547 23.75,-13h9.09375c-1.08594,-0.27344 -3.41797,-0.64062 -3.03125,-2.0625c-1.29297,1.49609 -3.75391,1.68359 -5.65625,1.34375c0.36328,-0.6875 0.71484,-1.38672 1.03125,-2.125c2.89063,-0.07422 4.96484,-1.00391 6.125,-2.125c1.26953,-1.22656 1.65625,-2.59375 1.65625,-2.59375c0.09766,-0.38281 -0.03516,-0.78516 -0.34375,-1.03125c0,0 -2.52734,-1.84375 -6.3125,-1.21875c-1.07812,-3.53516 -3.875,-5.25 -3.875,-5.25c-0.20703,-0.12109 -0.44922,-0.16797 -0.6875,-0.125c-0.16016,0.03516 -0.3125,0.10938 -0.4375,0.21875c0,0 -0.66797,0.57031 -1.21875,1.59375c-0.55078,1.02344 -1.05859,2.58203 -0.875,4.59375c0.08594,0.94141 0.38281,1.83594 0.8125,2.6875c-0.24219,0.14844 -0.38281,0.27344 -0.78125,0.4375c-0.82812,0.34375 -2.03516,0.65625 -3.75,0.65625h-0.5v-5h-5v-10zM22,11h3v3h-3zM12,16h3v3h-3zM17,16h3v3h-3zM22,16h3v3h-3zM39.09375,16.21875c0.74219,0.55078 2.08594,1.70313 2.5625,4.21875c0.05078,0.27734 0.21484,0.51563 0.45313,0.66406c0.23828,0.14844 0.52734,0.19141 0.79688,0.11719c2.55078,-0.69922 3.92969,-0.125 4.6875,0.3125c-0.14453,0.31641 -0.12109,0.51172 -0.6875,1.0625c-0.91016,0.87891 -2.45312,1.76563 -5.34375,1.65625c-0.42187,-0.01562 -0.80859,0.23438 -0.96875,0.625c-0.39844,0.99609 -0.85937,1.91797 -1.34375,2.8125c-0.14844,-0.08594 -0.27344,-0.1875 -0.375,-0.28125c-1.33984,1.94141 -9.11328,1.19922 -9.65625,-0.3125c-1.67578,1.96875 -6.88281,1.96875 -8.5625,0c-0.54297,1.51172 -8.34766,2.25391 -9.6875,0.3125c-1.19922,1.125 -5.93359,1.81641 -7.90625,-0.46875c0.1875,0.6875 -0.29687,1.13281 -0.9375,1.4375c-0.08203,-0.57031 -0.125,-1.11328 -0.125,-1.625c0,-0.42969 0.03125,-0.46875 0.0625,-0.75h30.4375c1.96875,0 3.44531,-0.375 4.5,-0.8125c1.05469,-0.4375 1.80469,-0.96875 1.90625,-1.03125c0.24219,-0.15234 0.40625,-0.39844 0.45313,-0.67969c0.04688,-0.27734 -0.02734,-0.56641 -0.20312,-0.78906c-0.55469,-0.72266 -0.84375,-1.62891 -0.9375,-2.65625c-0.14453,-1.61328 0.23438,-2.74219 0.625,-3.46875c0.13281,-0.24609 0.14063,-0.19531 0.25,-0.34375zM7,21h3v3h-3zM12,21h3v3h-3zM17,21h3v3h-3zM22,21h3v3h-3zM27,21h3v3h-3zM2.25,29h36.25c-4.58984,7.41406 -12.21094,11 -21.5,11c-5.46875,0 -9.01562,-1.85547 -11.34375,-4.3125c4.4375,0.21094 7.875,-0.96875 7.875,-0.96875c0.55078,-0.07031 0.94531,-0.57422 0.875,-1.125c-0.07031,-0.55078 -0.57422,-0.94531 -1.125,-0.875c-0.05469,0.00781 -0.10547,0.01563 -0.15625,0.03125c-0.08594,0.01172 -0.16797,0.03125 -0.25,0.0625c0,0 -4.08984,1.39453 -8.875,0.71875c-0.89844,-1.48047 -1.46484,-3.06641 -1.75,-4.53125zM16,31c-0.55078,0 -1,0.44922 -1,1c0,0.55078 0.44922,1 1,1c0.55078,0 1,-0.44922 1,-1c0,-0.13672 -0.01172,-0.25781 -0.0625,-0.375c-0.07031,0.125 -0.22266,0.21875 -0.375,0.21875c-0.22656,0 -0.40625,-0.21094 -0.40625,-0.4375c0,-0.15234 0.09766,-0.27344 0.21875,-0.34375c-0.11328,-0.04297 -0.24609,-0.0625 -0.375,-0.0625z"></path></g></g></svg>