<svg xmlns="http://www.w3.org/2000/svg" xmlns:xlink="http://www.w3.org/1999/xlink" viewBox="0,0,256,256" width="48px" height="48px"><defs><linearGradient x1="3.851" y1="2.596" x2="34.471" y2="33.216" gradientUnits="userSpaceOnUse" id="color-1"><stop offset="0" stop-color="#ffffff"></stop><stop offset="1" stop-color="#ffffff"></stop></linearGradient></defs><g fill="url(#color-1)" fill-rule="nonzero" stroke="none" stroke-width="1" stroke-linecap="butt" stroke-linejoin="miter" stroke-miterlimit="10" stroke-dasharray="" stroke-dashoffset="0" font-family="none" font-weight="none" font-size="none" text-anchor="none" style="mix-blend-mode: normal"><g transform="scale(5.33333,5.33333)"><path d="M33.244,25l-9.121,-12h1.18c0.84,0 1.631,0.392 2.139,1.061l7.059,9.287l7.059,-9.287c0.507,-0.669 1.298,-1.061 2.138,-1.061h1.18l-9.121,12l9.547,12.56h-1.18c-0.84,0 -1.631,-0.392 -2.139,-1.061l-7.485,-9.847l-7.485,9.847c-0.508,0.668 -1.299,1.061 -2.139,1.061h-1.18zM4,26v0.783c0,4.199 2.776,8.032 6.868,8.972c4.439,1.02 8.49,-1.247 10.228,-4.842c0.27,-0.558 0.832,-0.913 1.451,-0.913h1.028c-1.319,4.655 -5.616,8.059 -10.707,7.999c-6.091,-0.072 -10.868,-5.305 -10.868,-11.857v-0.142v-2v-0.716c0,-5.427 3.812,-10.273 9.171,-11.136c6.884,-1.109 12.829,4.177 12.829,10.852v3zM4,24h18v-1c0,-5.648 -5.202,-10.08 -11.076,-8.768c-4.12,0.921 -6.924,4.77 -6.924,9.478z"></path></g></g></svg>