<svg xmlns="http://www.w3.org/2000/svg" xmlns:xlink="http://www.w3.org/1999/xlink" viewBox="0,0,256,256" width="50px" height="50px"><g fill="#ffffff" fill-rule="nonzero" stroke="none" stroke-width="1" stroke-linecap="butt" stroke-linejoin="miter" stroke-miterlimit="10" stroke-dasharray="" stroke-dashoffset="0" font-family="none" font-weight="none" font-size="none" text-anchor="none" style="mix-blend-mode: normal"><g transform="scale(5.12,5.12)"><path d="M18.5,2c-4.68248,0 -8.5,3.81752 -8.5,8.5c0,3.30029 1.94993,6.09286 4.70898,7.5c-2.75906,1.40715 -4.70898,4.19971 -4.70898,7.5c0,3.30029 1.94993,6.09286 4.70898,7.5c-2.75906,1.40715 -4.70898,4.19971 -4.70898,7.5c0,4.68248 3.81752,8.5 8.5,8.5c4.68248,0 8.5,-3.81752 8.5,-8.5v-7.5v-3.34375c1.34137,2.54547 3.93207,4.34375 7,4.34375c4.40644,0 8,-3.59357 8,-8c0,-3.62175 -2.47383,-6.57131 -5.78516,-7.55078c3.33871,-1.14751 5.78516,-4.22899 5.78516,-7.94922c0,-4.68248 -3.81752,-8.5 -8.5,-8.5h-7.5zM18.5,4h6.5v13h-6.5c-3.60152,0 -6.5,-2.89848 -6.5,-6.5c0,-3.60152 2.89848,-6.5 6.5,-6.5zM27,4h6.5c3.60152,0 6.5,2.89848 6.5,6.5c0,3.60152 -2.89848,6.5 -6.5,6.5h-6.5zM18.5,19h6.5v13h-6.5c-3.60152,0 -6.5,-2.89848 -6.5,-6.5c0,-3.60152 2.89848,-6.5 6.5,-6.5zM27,19h3.34375c-1.43491,0.75615 -2.5876,1.90884 -3.34375,3.34375zM34,20c3.32556,0 6,2.67445 6,6c0,3.32555 -2.67444,6 -6,6c-3.32556,0 -6,-2.67445 -6,-6c0,-3.32555 2.67444,-6 6,-6zM18.5,34h6.5v6.5c0,3.60152 -2.89848,6.5 -6.5,6.5c-3.60152,0 -6.5,-2.89848 -6.5,-6.5c0,-3.60152 2.89848,-6.5 6.5,-6.5z"></path></g></g></svg>