<svg xmlns="http://www.w3.org/2000/svg" xmlns:xlink="http://www.w3.org/1999/xlink" viewBox="0,0,256,256" width="48px" height="48px"><g fill="#ffffff" fill-rule="nonzero" stroke="none" stroke-width="1" stroke-linecap="butt" stroke-linejoin="miter" stroke-miterlimit="10" stroke-dasharray="" stroke-dashoffset="0" font-family="none" font-weight="none" font-size="none" text-anchor="none" style="mix-blend-mode: normal"><g transform="scale(10.66667,10.66667)"><path d="M21.612,17.714l-2.125,-13c-0.059,-0.358 -0.307,-0.657 -0.649,-0.78c-0.342,-0.121 -0.724,-0.05 -0.997,0.189l-3.247,2.845l-1.829,-3.551c-0.166,-0.321 -0.492,-0.528 -0.853,-0.541c-0.362,-0.013 -0.701,0.169 -0.89,0.478l-1.092,1.786l-2.338,-4.619c-0.191,-0.377 -0.603,-0.585 -1.019,-0.54c-0.42,0.054 -0.76,0.366 -0.85,0.78l-3.7,17.026c-0.117,0.539 0.225,1.072 0.765,1.189c0.027,0.006 0.054,0.005 0.081,0.009c0.003,0.001 0.004,0.004 0.007,0.005l8.455,4.875c0.154,0.09 0.326,0.135 0.499,0.135c0.174,0 0.348,-0.045 0.503,-0.136l8.795,-5.125c0.358,-0.209 0.551,-0.616 0.484,-1.025zM11.801,5.915l1.242,2.411l-1.039,0.91l-1.012,-1.998zM10.451,10.597l-3.244,2.842l2.56,-4.193zM7.079,3.937l1.626,3.211l-3.607,5.907zM11.827,21.844l-6.742,-3.887l7.357,-6.446c0.007,-0.008 0.016,-0.012 0.023,-0.02l5.339,-4.677l1.724,10.543z"></path></g></g></svg>