<svg xmlns="http://www.w3.org/2000/svg" xmlns:xlink="http://www.w3.org/1999/xlink" viewBox="0,0,256,256" width="50px" height="50px"><g fill="#ffffff" fill-rule="nonzero" stroke="none" stroke-width="1" stroke-linecap="butt" stroke-linejoin="miter" stroke-miterlimit="10" stroke-dasharray="" stroke-dashoffset="0" font-family="none" font-weight="none" font-size="none" text-anchor="none" style="mix-blend-mode: normal"><g transform="scale(5.12,5.12)"><path d="M25,2c-2.19788,0 -4,1.80212 -4,4c0,0.31518 0.11167,0.59587 0.18164,0.89063l-10.25977,5.43164c-0.73293,-0.79958 -1.7599,-1.32227 -2.92187,-1.32227c-2.19788,0 -4,1.80212 -4,4c0,1.83939 1.29152,3.3398 3,3.79688v12.40625c-1.70656,0.45624 -3,1.95282 -3,3.79688c0,2.19182 1.7985,4 4,4c1.16197,0 2.18895,-0.52269 2.92188,-1.32227l10.25977,5.43164c-0.06997,0.29475 -0.18164,0.57545 -0.18164,0.89063c0,2.19788 1.80212,4 4,4c2.2015,0 4,-1.80818 4,-4c0,-0.31518 -0.11167,-0.59587 -0.18164,-0.89062l10.25977,-5.43164c0.73293,0.79958 1.7599,1.32227 2.92188,1.32227c2.2015,0 4,-1.80818 4,-4c0,-1.84405 -1.29344,-3.34063 -3,-3.79687v-12.40625c1.70848,-0.45708 3,-1.95748 3,-3.79687c0,-2.19788 -1.80212,-4 -4,-4c-1.16197,0 -2.18895,0.52269 -2.92187,1.32227l-10.25977,-5.43164c0.07022,-0.29505 0.18164,-0.57548 0.18164,-0.89062c0,-2.19788 -1.80212,-4 -4,-4zM25,4c1.12012,0 2,0.87988 2,2c0,1.10818 -0.88349,2 -2,2c-1.12012,0 -2,-0.87988 -2,-2c0,-1.12012 0.87988,-2 2,-2zM22.07813,8.67773c0.04196,0.04578 0.06146,0.10855 0.10547,0.15234l-13.125,22.38477c-0.01906,-0.0054 -0.03942,-0.00659 -0.05859,-0.01172v-12.40625c1.70656,-0.45624 3,-1.95282 3,-3.79687c0,-0.31518 -0.11167,-0.59587 -0.18164,-0.89062zM27.92188,8.67969l10.25977,5.42969c-0.06997,0.29476 -0.18164,0.57545 -0.18164,0.89063c0,1.84405 1.29344,3.34063 3,3.79688v12.40625c-0.01917,0.0051 -0.03953,0.0063 -0.05859,0.01172l-13.12305,-22.38672c0.04291,-0.04278 0.06255,-0.10378 0.10352,-0.14844zM23.94141,9.78516c0.3446,0.09771 0.68405,0.21484 1.05859,0.21484c0.37471,0 0.71411,-0.1171 1.05859,-0.21484l13.125,22.38477c-0.49524,0.49286 -0.79525,1.13729 -0.98047,1.83008h-26.40625c-0.18521,-0.69279 -0.48522,-1.33721 -0.98047,-1.83008zM8,13c1.12012,0 2,0.87988 2,2c0,1.12012 -0.87988,2 -2,2c-1.1165,0 -2,-0.89182 -2,-2c0,-1.12012 0.87988,-2 2,-2zM42,13c1.12012,0 2,0.87988 2,2c0,1.10818 -0.8835,2 -2,2c-1.12012,0 -2,-0.87988 -2,-2c0,-1.12012 0.87988,-2 2,-2zM8,33c1.12012,0 2,0.87988 2,2c0,1.12012 -0.87988,2 -2,2c-1.1165,0 -2,-0.89182 -2,-2c0,-1.12012 0.87988,-2 2,-2zM42,33c1.12012,0 2,0.87988 2,2c0,1.10818 -0.8835,2 -2,2c-1.12012,0 -2,-0.87988 -2,-2c0,-1.12012 0.87988,-2 2,-2zM12.02734,36h25.94531l-10.05078,5.32227c-0.73293,-0.79958 -1.7599,-1.32227 -2.92187,-1.32227c-1.16197,0 -2.18895,0.52269 -2.92187,1.32227zM25,42c1.12012,0 2,0.87988 2,2c0,1.10818 -0.88349,2 -2,2c-1.12012,0 -2,-0.87988 -2,-2c0,-1.12012 0.87988,-2 2,-2z"></path></g></g></svg>