<svg xmlns="http://www.w3.org/2000/svg" xmlns:xlink="http://www.w3.org/1999/xlink" viewBox="0,0,256,256" width="48px" height="48px"><g fill="#ffffff" fill-rule="nonzero" stroke="none" stroke-width="1" stroke-linecap="butt" stroke-linejoin="miter" stroke-miterlimit="10" stroke-dasharray="" stroke-dashoffset="0" font-family="none" font-weight="none" font-size="none" text-anchor="none" style="mix-blend-mode: normal"><g transform="scale(5.33333,5.33333)"><path d="M21.906,31.772l2.601,-2.724l2.6,2.724v11.228h-5.201z"></path><path d="M17.737,29.058l3.705,-0.675l0.503,3.732l-6.6,9.084l-4.207,-3.058z"></path><path d="M15.962,24.409l3.393,1.632l-1.786,3.315l-10.679,3.469l-1.607,-4.946z"></path><path d="M17.256,19.607l1.786,3.315l-3.393,1.632l-10.679,-3.47l1.607,-4.947z"></path><path d="M21.126,16.482l-0.503,3.732l-3.705,-0.675l-6.6,-9.084l4.208,-3.057z"></path><path d="M26.094,16.228l-2.601,2.724l-2.6,-2.724v-11.228h5.201z"></path><path d="M30.262,18.943l-3.704,0.675l-0.503,-3.732l6.599,-9.084l4.208,3.057z"></path><path d="M32.039,23.59l-3.394,-1.632l1.786,-3.315l10.679,-3.469l1.607,4.946z"></path><path d="M30.744,28.393l-1.786,-3.315l3.393,-1.631l10.679,3.469l-1.607,4.947z"></path><path d="M26.874,31.518l0.504,-3.732l3.704,0.675l6.6,9.084l-4.208,3.057z"></path></g></g></svg>