<svg xmlns="http://www.w3.org/2000/svg" xmlns:xlink="http://www.w3.org/1999/xlink" viewBox="0,0,256,256" width="48px" height="48px"><g fill="#ffffff" fill-rule="nonzero" stroke="none" stroke-width="1" stroke-linecap="butt" stroke-linejoin="miter" stroke-miterlimit="10" stroke-dasharray="" stroke-dashoffset="0" font-family="none" font-weight="none" font-size="none" text-anchor="none" style="mix-blend-mode: normal"><g transform="scale(5.33333,5.33333)"><path d="M18.974,31.5c0,0.828 -0.671,1.5 -1.5,1.5c-0.829,0 -1.5,-0.672 -1.5,-1.5v-14c0,-0.653 0.423,-1.231 1.045,-1.43c0.625,-0.198 1.302,0.03 1.679,0.563l16.777,23.704c5.142,-3.628 8.525,-9.602 8.525,-16.337c0,-11 -9,-20 -20,-20c-11,0 -20,9 -20,20c0,11 9,20 20,20c3.192,0 6.206,-0.777 8.89,-2.122l-13.916,-19.662zM28.974,16.5c0,-0.828 0.671,-1.5 1.5,-1.5c0.829,0 1.5,0.672 1.5,1.5v13.84l-3,-4.227z"></path></g></g></svg>