<svg xmlns="http://www.w3.org/2000/svg" xmlns:xlink="http://www.w3.org/1999/xlink" viewBox="0,0,256,256" width="48px" height="48px"><g fill="none" fill-rule="nonzero" stroke="none" stroke-width="1" stroke-linecap="butt" stroke-linejoin="miter" stroke-miterlimit="10" stroke-dasharray="" stroke-dashoffset="0" font-family="none" font-weight="none" font-size="none" text-anchor="none" style="mix-blend-mode: normal"><g transform="scale(5.33333,5.33333)"><path d="M43,35.112v-21.776l-19,-10.889l-19,10.889v21.776l19,10.888z" fill="#ffffff"></path><path d="M32.5,13c-1.381,0 -2.5,1.119 -2.5,2.5v11.276l-11.016,-12.323l-0.131,-0.152c-1.244,-1.363 -2.666,-1.301 -3.353,-1.301c-1.381,0 -2.5,1.119 -2.5,2.5v17c0,1.381 1.119,2.5 2.5,2.5c1.381,0 2.5,-1.119 2.5,-2.5v-11.359l11.278,12.627l0.11,0.142c1.232,1.223 2.907,1.09 3.112,1.09c1.381,0 2.5,-1.119 2.5,-2.5v-17c0,-1.381 -1.119,-2.5 -2.5,-2.5z" fill="#191919"></path></g></g></svg>