<svg xmlns="http://www.w3.org/2000/svg" xmlns:xlink="http://www.w3.org/1999/xlink" viewBox="0,0,256,256" width="50px" height="50px"><g fill="#ffffff" fill-rule="nonzero" stroke="none" stroke-width="1" stroke-linecap="butt" stroke-linejoin="miter" stroke-miterlimit="10" stroke-dasharray="" stroke-dashoffset="0" font-family="none" font-weight="none" font-size="none" text-anchor="none" style="mix-blend-mode: normal"><g transform="scale(5.12,5.12)"><path d="M6,4c-1.09306,0 -2,0.90694 -2,2v38c0,1.09306 0.90694,2 2,2h38c1.09306,0 2,-0.90694 2,-2v-38c0,-1.09306 -0.90694,-2 -2,-2zM6,6h38v38h-38zM18.58594,14c-1.44,0 -2.59198,0.16002 -3.58398,0.41602l-0.00195,21.58398h2.46484v-9.16992c0.352,0.031 0.67189,0.03125 1.08789,0.03125c1.92,0 3.93589,-0.79844 5.08789,-2.39844c0.833,-1.088 1.31055,-2.43202 1.31055,-4.41602c0,-1.887 -0.54341,-3.45647 -1.56641,-4.48047c-1.12,-1.088 -2.81583,-1.56641 -4.79883,-1.56641zM18.97656,15.64063c2.751,0 3.64648,1.98145 3.64648,4.18945c0,3.04 -1.63225,4.64063 -4.03125,4.64063c-0.416,0 -0.70419,-0.0315 -0.99219,-0.0625v-8.60742c0.32,-0.097 0.80095,-0.16016 1.37695,-0.16016zM31.7168,20c-2.491,0 -4.41602,1.76864 -4.41602,4.30664c0,1.767 1.12675,3.11659 3.21875,4.43359c1.626,1.028 2.05664,1.86373 2.05664,3.05273c0,1.381 -0.92747,2.24805 -2.35547,2.24805c-1.03,0 -2.02584,-0.44973 -2.58984,-0.80273l-0.63086,1.86133c0.697,0.546 1.9923,0.90039 3.1543,0.90039c2.656,0 4.8457,-1.50995 4.8457,-4.62695c0,-2.152 -1.45941,-3.59886 -3.31641,-4.75586c-1.594,-1.027 -1.99219,-1.63802 -1.99219,-2.66602c0,-1.027 0.69564,-1.99023 2.05664,-1.99023c0.863,0 1.5282,0.28903 2.1582,0.70703l0.66406,-1.86523c-0.664,-0.417 -1.59152,-0.80273 -2.85352,-0.80273z"></path></g></g></svg>