<svg xmlns="http://www.w3.org/2000/svg" xmlns:xlink="http://www.w3.org/1999/xlink" viewBox="0,0,256,256" width="24px" height="24px"><g fill="#ffffff" fill-rule="nonzero" stroke="none" stroke-width="1" stroke-linecap="butt" stroke-linejoin="miter" stroke-miterlimit="10" stroke-dasharray="" stroke-dashoffset="0" font-family="none" font-weight="none" font-size="none" text-anchor="none" style="mix-blend-mode: normal"><g transform="scale(10.66667,10.66667)"><path d="M22.105,7.553c-0.224,0.448 -0.523,0.723 -0.914,0.838c-0.612,0.183 -1.343,-0.052 -1.685,-0.253c-0.451,-0.265 -0.974,-0.667 -1.527,-1.092c-1.765,-1.358 -3.961,-3.046 -6.979,-3.046c-2.414,0 -3.654,1.239 -5.707,3.293l1.407,1.421c0.546,-0.425 4.031,-0.015 5.552,1.194c2.259,1.795 3.89,3.092 5.748,3.092c2.659,0 4.879,-1.741 5.94,-4.658zM16.192,15.391c-0.614,0.18 -1.343,-0.052 -1.685,-0.253c-0.451,-0.265 -0.974,-0.667 -1.527,-1.092c-1.766,-1.358 -3.962,-3.046 -6.98,-3.046c-2.414,0 -3.654,1.239 -5.707,3.293l1.407,1.421c0.545,-0.427 4.032,-0.014 5.552,1.194c2.259,1.795 3.89,3.092 5.748,3.092c2.659,0 4.879,-1.741 5.94,-4.658l-1.834,-0.789c-0.225,0.448 -0.523,0.722 -0.914,0.838z"></path></g></g></svg>