<svg xmlns="http://www.w3.org/2000/svg" xmlns:xlink="http://www.w3.org/1999/xlink" viewBox="0,0,256,256" width="50px" height="50px"><g fill="#ffffff" fill-rule="nonzero" stroke="none" stroke-width="1" stroke-linecap="butt" stroke-linejoin="miter" stroke-miterlimit="10" stroke-dasharray="" stroke-dashoffset="0" font-family="none" font-weight="none" font-size="none" text-anchor="none" style="mix-blend-mode: normal"><g transform="scale(5.12,5.12)"><path d="M6,4c-1.09306,0 -2,0.90694 -2,2v38c0,1.09306 0.90694,2 2,2h38c1.09306,0 2,-0.90694 2,-2v-38c0,-1.09306 -0.90694,-2 -2,-2zM6,6h38v38h-38zM34.5,14v7.86719v0.00781c-0.607,-1.311 -1.67688,-1.875 -2.79687,-1.875c-2.4,0 -4.70312,2.372 -4.70312,7.875c0,5.121 1.85647,8.4375 4.48047,8.4375c1.631,0 2.53953,-0.8495 3.01953,-1.9375v1.625h2.5c-0.032,-0.896 0,-2.319 0,-3.375v-18.625zM13.03516,15l5.48242,10.5l-5.48242,10.5h2.46484l4.25586,-8.12695l4.24414,8.12695h2.5l-5.5,-10.5l5.5,-10.5h-2.5l-4.24414,8.12695l-4.25586,-8.12695zM32.24609,22.11133c1.184,0 2.11223,1.41367 2.24023,3.01367c0.032,0.351 0,0.7435 0,1.0625v4.5625c0,0 -0.029,0.587 -0.125,0.875c-0.544,2.239 -1.53669,2.63867 -2.30469,2.63867c-1.792,0 -2.59375,-3.12467 -2.59375,-6.38867c0,-3.103 0.7352,-5.76367 2.7832,-5.76367z"></path></g></g></svg>